<svg xmlns="http://www.w3.org/2000/svg" xmlns:xlink="http://www.w3.org/1999/xlink" version="1.1" width="256" height="256" viewBox="0 0 256 256" xml:space="preserve">

<defs>
</defs>
<g style="stroke: none; stroke-width: 0; stroke-dasharray: none; stroke-linecap: butt; stroke-linejoin: miter; stroke-miterlimit: 10; fill: none; fill-rule: nonzero; opacity: 1;" transform="translate(1.4065934065934016 1.4065934065934016) scale(2.81 2.81)" >
	<path d="M 73.528 35.652 v -0.461 c 0 -2.913 -2.369 -5.282 -5.282 -5.282 h -8.719 l 4.379 -14.974 c 0.376 -1.284 0.228 -2.642 -0.419 -3.822 c -0.646 -1.18 -1.708 -2.037 -2.993 -2.413 c -2.659 -0.774 -5.457 0.753 -6.233 3.413 l -5.204 17.795 H 21.753 c -2.913 0 -5.282 2.369 -5.282 5.282 v 0.461 c 0 2.59 1.877 4.74 4.341 5.187 c -2.839 4.521 -4.341 9.687 -4.341 15.11 c 0 9.886 5.057 18.612 12.718 23.732 l -6.003 7.913 c -0.501 0.66 -0.372 1.601 0.288 2.102 C 23.746 89.9 24.064 90 24.38 90 c 0.453 0 0.901 -0.204 1.196 -0.594 l 6.21 -8.186 c 3.953 2.076 8.447 3.257 13.214 3.257 c 4.783 0 9.292 -1.189 13.256 -3.279 l 6.226 8.208 C 64.777 89.796 65.226 90 65.679 90 c 0.316 0 0.635 -0.1 0.905 -0.305 c 0.66 -0.501 0.789 -1.441 0.289 -2.102 l -6.022 -7.939 c 7.639 -5.124 12.678 -13.837 12.678 -23.706 c 0 -5.423 -1.502 -10.589 -4.341 -15.11 C 71.651 40.392 73.528 38.242 73.528 35.652 z M 57.14 12.956 c 0.314 -1.071 1.438 -1.688 2.513 -1.375 c 0.515 0.151 0.942 0.497 1.204 0.974 c 0.261 0.477 0.321 1.023 0.171 1.539 l -4.625 15.816 h -4.221 L 57.14 12.956 z M 45 81.477 c -14.076 0 -25.528 -11.452 -25.528 -25.528 c 0 -5.463 1.704 -10.632 4.904 -15.015 h 15.923 v 10.353 c 0 3.156 2.567 5.724 5.723 5.724 c 3.156 0 5.724 -2.567 5.724 -5.724 v -0.035 c 0.811 0.44 1.737 0.69 2.723 0.69 c 3.156 0 5.724 -2.567 5.724 -5.723 v -5.285 h 5.433 c 3.199 4.382 4.903 9.552 4.903 15.015 C 70.528 70.024 59.076 81.477 45 81.477 z M 43.298 40.934 h 13.893 v 5.285 c 0 1.501 -1.222 2.723 -2.724 2.723 c -1.501 0 -2.723 -1.222 -2.723 -2.723 c 0 -0.829 -0.672 -1.5 -1.5 -1.5 s -1.5 0.671 -1.5 1.5 v 5.067 c 0 1.502 -1.222 2.724 -2.724 2.724 c -1.501 0 -2.723 -1.222 -2.723 -2.724 V 40.934 z M 70.528 35.652 c 0 1.258 -1.023 2.282 -2.282 2.282 H 21.753 c -1.258 0 -2.282 -1.023 -2.282 -2.282 v -0.461 c 0 -1.258 1.023 -2.282 2.282 -2.282 h 35.771 c 0.001 0 0.002 0 0.003 0 c 0.001 0 0.002 0 0.003 0 h 10.716 c 1.259 0 2.282 1.023 2.282 2.282 V 35.652 z" style="stroke: none; stroke-width: 1; stroke-dasharray: none; stroke-linecap: butt; stroke-linejoin: miter; stroke-miterlimit: 10; fill: rgb(0,0,0); fill-rule: nonzero; opacity: 1;" transform=" matrix(1 0 0 1 0 0) " stroke-linecap="round" />
	<path d="M 26.894 19.044 c -2.91 0 -5.278 -2.368 -5.278 -5.278 s 2.368 -5.278 5.278 -5.278 c 2.911 0 5.278 2.368 5.278 5.278 S 29.805 19.044 26.894 19.044 z M 26.894 11.487 c -1.256 0 -2.278 1.022 -2.278 2.278 s 1.022 2.278 2.278 2.278 c 1.256 0 2.278 -1.022 2.278 -2.278 S 28.15 11.487 26.894 11.487 z" style="stroke: none; stroke-width: 1; stroke-dasharray: none; stroke-linecap: butt; stroke-linejoin: miter; stroke-miterlimit: 10; fill: rgb(0,0,0); fill-rule: nonzero; opacity: 1;" transform=" matrix(1 0 0 1 0 0) " stroke-linecap="round" />
	<path d="M 39.072 9.45 c -2.605 0 -4.725 -2.12 -4.725 -4.725 C 34.347 2.12 36.467 0 39.072 0 c 2.605 0 4.725 2.12 4.725 4.725 C 43.797 7.33 41.677 9.45 39.072 9.45 z M 39.072 3 c -0.951 0 -1.725 0.774 -1.725 1.725 s 0.774 1.725 1.725 1.725 s 1.725 -0.773 1.725 -1.725 S 40.023 3 39.072 3 z" style="stroke: none; stroke-width: 1; stroke-dasharray: none; stroke-linecap: butt; stroke-linejoin: miter; stroke-miterlimit: 10; fill: rgb(0,0,0); fill-rule: nonzero; opacity: 1;" transform=" matrix(1 0 0 1 0 0) " stroke-linecap="round" />
	<path d="M 39.625 27.531 c -2.911 0 -5.278 -2.368 -5.278 -5.278 c 0 -2.911 2.368 -5.278 5.278 -5.278 s 5.278 2.368 5.278 5.278 C 44.904 25.164 42.536 27.531 39.625 27.531 z M 39.625 19.975 c -1.256 0 -2.278 1.022 -2.278 2.278 c 0 1.256 1.022 2.278 2.278 2.278 s 2.278 -1.022 2.278 -2.278 C 41.904 20.997 40.882 19.975 39.625 19.975 z" style="stroke: none; stroke-width: 1; stroke-dasharray: none; stroke-linecap: butt; stroke-linejoin: miter; stroke-miterlimit: 10; fill: rgb(0,0,0); fill-rule: nonzero; opacity: 1;" transform=" matrix(1 0 0 1 0 0) " stroke-linecap="round" />
</g>
</svg>